# Blender 4.2.2 LTS
# www.blender.org
o StreetFrontRim
v 0.000162 0.005926 -0.303843
v 0.000162 0.121607 -0.280833
v 0.000162 0.219677 -0.215305
v 0.000162 0.285205 -0.117235
v 0.000162 0.308216 -0.001553
v 0.000162 0.285205 0.114128
v 0.000162 0.219677 0.212198
v 0.000162 0.121607 0.277726
v 0.000162 0.005926 0.300736
v 0.000162 -0.109755 0.277726
v 0.000162 -0.207825 0.212198
v 0.000162 -0.273353 0.114128
v 0.000162 -0.296364 -0.001554
v 0.000162 -0.273353 -0.117235
v 0.000162 -0.207825 -0.215305
v 0.000162 -0.109755 -0.280833
v 0.269405 0.005926 -0.205404
v 0.269405 0.083936 -0.189887
v 0.269405 0.150070 -0.145698
v 0.269405 0.194259 -0.079564
v 0.269405 0.209777 -0.001553
v 0.269405 0.194259 0.076457
v 0.269405 0.150070 0.142591
v 0.269405 0.083936 0.186780
v 0.269405 0.005926 0.202297
v 0.269405 -0.072084 0.186780
v 0.269405 -0.138218 0.142591
v 0.269405 -0.182407 0.076457
v 0.269405 -0.197925 -0.001554
v 0.269405 -0.182407 -0.079564
v 0.269405 -0.138218 -0.145698
v 0.269405 -0.072084 -0.189887
v 0.271370 0.117086 0.266811
v 0.271370 0.005926 -0.292029
v 0.271370 -0.199471 -0.206951
v 0.271370 0.117086 -0.269918
v 0.271370 0.005926 0.288922
v 0.271370 -0.105234 -0.269918
v 0.271370 0.211323 -0.206951
v 0.271370 -0.105234 0.266811
v 0.271370 0.274291 -0.112714
v 0.271370 -0.199471 0.203844
v 0.271370 0.296402 -0.001553
v 0.271370 -0.262439 0.109607
v 0.271370 0.274291 0.109607
v 0.271370 -0.284550 -0.001554
v 0.271370 0.211323 0.203844
v 0.271370 -0.262438 -0.112714
v 0.217639 -0.116532 0.294086
v 0.132161 -0.122649 0.308853
v 0.059559 -0.119598 0.301489
v 0.059559 0.308968 -0.127078
v 0.132161 0.316333 -0.130128
v 0.217639 0.301566 -0.124011
v 0.059559 -0.226013 0.230385
v 0.132161 -0.231649 0.236021
v 0.217639 -0.220347 0.224719
v 0.059559 0.333936 -0.001553
v 0.132161 0.341908 -0.001553
v 0.217639 0.325924 -0.001553
v 0.059559 -0.297116 0.123971
v 0.132161 -0.304481 0.127021
v 0.217639 -0.289714 0.120904
v 0.059559 0.308968 0.123971
v 0.132161 0.316333 0.127021
v 0.217639 0.301566 0.120905
v 0.059559 -0.322084 -0.001554
v 0.132161 -0.330056 -0.001554
v 0.217639 -0.314072 -0.001554
v 0.059559 0.237864 0.230385
v 0.132161 0.243501 0.236022
v 0.217639 0.232199 0.224719
v 0.059559 -0.297116 -0.127078
v 0.132161 -0.304480 -0.130128
v 0.217639 -0.289713 -0.124012
v 0.059559 0.131450 0.301489
v 0.132161 0.134501 0.308853
v 0.217639 0.128384 0.294086
v 0.217639 0.005926 -0.321551
v 0.132161 0.005926 -0.337535
v 0.059559 0.005926 -0.329564
v 0.059559 -0.226012 -0.233492
v 0.132161 -0.231649 -0.239129
v 0.217639 -0.220346 -0.227826
v 0.059559 0.131450 -0.304596
v 0.132161 0.134501 -0.311960
v 0.217639 0.128384 -0.297193
v 0.059559 0.005926 0.326457
v 0.132161 0.005926 0.334428
v 0.217639 0.005926 0.318445
v 0.059559 -0.119598 -0.304596
v 0.132161 -0.122648 -0.311960
v 0.217639 -0.116531 -0.297193
v 0.059559 0.237864 -0.233492
v 0.132161 0.243501 -0.239128
v 0.217639 0.232199 -0.227826
v 0.278340 0.005926 -0.205404
v 0.278340 0.083936 -0.189887
v 0.278340 0.150070 -0.145698
v 0.278340 0.194259 -0.079564
v 0.278340 0.209777 -0.001553
v 0.278340 0.194259 0.076457
v 0.278340 0.150070 0.142591
v 0.278340 0.083936 0.186780
v 0.278340 0.005926 0.202297
v 0.278340 -0.072084 0.186780
v 0.278340 -0.138218 0.142591
v 0.278340 -0.182407 0.076457
v 0.278340 -0.197925 -0.001554
v 0.278340 -0.182407 -0.079564
v 0.278340 -0.138218 -0.145698
v 0.278340 -0.072084 -0.189887
v 0.278340 0.005926 -0.177080
v 0.278340 0.073097 -0.163719
v 0.278340 0.130042 -0.125669
v 0.278340 0.168091 -0.068724
v 0.278340 0.181453 -0.001553
v 0.278340 0.168091 0.065618
v 0.278340 0.130042 0.122563
v 0.278340 0.073097 0.160612
v 0.278340 0.005926 0.173973
v 0.278340 -0.061245 0.160612
v 0.278340 -0.118190 0.122562
v 0.278340 -0.156239 0.065618
v 0.278340 -0.169600 -0.001554
v 0.278340 -0.156239 -0.068725
v 0.278340 -0.118190 -0.125670
v 0.278340 -0.061245 -0.163719
v 0.171085 0.005926 -0.177080
v 0.171085 0.073097 -0.163719
v 0.171085 0.130042 -0.125669
v 0.171085 0.168091 -0.068724
v 0.171085 0.181452 -0.001553
v 0.171085 0.168091 0.065618
v 0.171085 0.130042 0.122563
v 0.171085 0.073097 0.160612
v 0.171085 0.005926 0.173973
v 0.171085 -0.061245 0.160612
v 0.171085 -0.118190 0.122562
v 0.171085 -0.156239 0.065618
v 0.171085 -0.169600 -0.001554
v 0.171085 -0.156239 -0.068725
v 0.171085 -0.118190 -0.125670
v 0.171085 -0.061245 -0.163719
v 0.171085 0.008942 -0.128685
v 0.171085 0.077172 -0.072799
v 0.171085 0.133058 -0.004569
v 0.171085 -0.061245 -0.068725
v 0.171085 0.005926 -0.001553
v 0.171085 0.073097 0.065618
v 0.171085 -0.121205 0.001462
v 0.171085 -0.065320 0.069692
v 0.171085 0.002910 0.125578
v 0.000162 0.210192 -0.080542
v 0.000162 0.166239 0.064851
v 0.000162 0.094511 0.198738
v 0.000162 0.068532 -0.152698
v 0.000162 0.005926 -0.001553
v 0.000162 -0.056680 0.149591
v 0.000162 -0.082659 -0.201845
v 0.000162 -0.154387 -0.067958
v 0.000162 -0.198340 0.077435
vn 0.3054 -0.0000 -0.9522
vn 0.4815 -0.0000 -0.8764
vn 0.4815 -0.3354 -0.8097
vn 0.3054 -0.3644 -0.8797
vn 0.3054 -0.8797 0.3644
vn 0.4815 -0.8097 0.3354
vn 0.4815 -0.6197 0.6197
vn 0.3054 -0.6733 0.6733
vn 0.3054 0.8797 0.3644
vn 0.4815 0.8097 0.3354
vn 0.4815 0.8764 -0.0000
vn 0.3054 0.9522 -0.0000
vn 0.3054 -0.9522 -0.0000
vn 0.4815 -0.8764 -0.0000
vn 0.3054 0.6733 0.6733
vn 0.4815 0.6197 0.6197
vn 0.3054 -0.8797 -0.3644
vn 0.4815 -0.8097 -0.3354
vn 0.3054 0.3644 0.8797
vn 0.4815 0.3354 0.8097
vn 0.3054 -0.6733 -0.6733
vn 0.4815 -0.6197 -0.6197
vn 0.3054 0.3644 -0.8797
vn 0.4815 0.3354 -0.8097
vn 0.3054 -0.0000 0.9522
vn 0.4815 -0.0000 0.8764
vn 0.3054 0.6733 -0.6733
vn 0.4815 0.6197 -0.6197
vn 0.3054 -0.3644 0.8797
vn 0.4815 -0.3354 0.8097
vn 0.3054 0.8797 -0.3644
vn 0.4815 0.8097 -0.3354
vn 0.9997 0.0160 0.0160
vn 0.9997 0.0210 0.0087
vn 0.9997 -0.0000 -0.0227
vn 0.9997 -0.0087 -0.0210
vn 0.9997 0.0087 0.0210
vn 0.9997 -0.0160 0.0160
vn 0.9997 -0.0087 0.0210
vn 0.9997 0.0087 -0.0210
vn 0.9997 -0.0000 0.0227
vn 0.9997 -0.0210 0.0087
vn 0.9997 0.0160 -0.0160
vn 0.9997 -0.0227 -0.0000
vn 0.9997 0.0210 -0.0087
vn 0.9997 -0.0210 -0.0087
vn 0.9997 0.0227 -0.0000
vn 0.9997 -0.0160 -0.0160
vn -0.3974 -0.3512 -0.8478
vn -0.3974 -0.0000 -0.9177
vn -0.2435 -0.0000 -0.9699
vn -0.2435 -0.3712 -0.8961
vn 0.0497 -0.0000 -0.9988
vn 0.0497 -0.3822 -0.9227
vn -0.3974 0.6489 -0.6489
vn -0.3974 0.8478 -0.3512
vn -0.2435 0.8961 -0.3712
vn -0.2435 0.6858 -0.6858
vn 0.0497 0.9227 -0.3822
vn 0.0497 0.7062 -0.7062
vn -0.3974 -0.0000 0.9177
vn -0.3974 -0.3512 0.8478
vn -0.2436 -0.3712 0.8961
vn -0.2435 -0.0000 0.9699
vn 0.0497 -0.3822 0.9227
vn 0.0497 -0.0000 0.9988
vn -0.3974 0.3512 -0.8478
vn -0.2435 0.3712 -0.8961
vn 0.0497 0.3822 -0.9227
vn -0.3974 -0.6489 -0.6489
vn -0.2435 -0.6858 -0.6858
vn 0.0497 -0.7062 -0.7062
vn -0.3974 0.3512 0.8478
vn -0.2435 0.3712 0.8961
vn 0.0497 0.3822 0.9227
vn -0.3974 -0.8478 -0.3512
vn -0.2435 -0.8961 -0.3712
vn 0.0497 -0.9227 -0.3822
vn -0.3974 0.6489 0.6489
vn -0.2435 0.6858 0.6858
vn 0.0497 0.7062 0.7062
vn -0.3974 -0.9177 -0.0000
vn -0.2435 -0.9699 -0.0000
vn 0.0497 -0.9988 -0.0000
vn -0.3974 0.8478 0.3512
vn -0.2435 0.8961 0.3712
vn 0.0497 0.9227 0.3822
vn -0.3974 -0.8478 0.3512
vn -0.2436 -0.8961 0.3712
vn 0.0497 -0.9227 0.3822
vn -0.3974 0.9177 -0.0000
vn -0.2435 0.9699 -0.0000
vn 0.0497 0.9988 -0.0000
vn -0.3974 -0.6489 0.6489
vn -0.2435 -0.6858 0.6858
vn 0.0497 -0.7062 0.7062
vn -0.0000 -1.0000 -0.0000
vn -0.0000 -0.9239 -0.3827
vn -0.0000 0.7071 0.7071
vn -0.0000 0.3827 0.9239
vn -0.0000 -0.7071 -0.7071
vn -0.0000 -0.0000 -1.0000
vn -0.0000 0.3827 -0.9239
vn -0.0000 -0.0000 1.0000
vn -0.0000 -0.3827 -0.9239
vn -0.0000 0.7071 -0.7071
vn -0.0000 -0.3827 0.9239
vn -0.0000 0.9239 -0.3827
vn -0.0000 -0.7071 0.7071
vn -0.0000 1.0000 -0.0000
vn -0.0000 -0.9239 0.3827
vn -0.0000 0.9239 0.3827
vn 1.0000 -0.0000 -0.0000
vn -1.0000 -0.0000 -0.0000
s 1
f 79//1 34//2 38//3 93//4
f 63//5 44//6 42//7 57//8
f 66//9 45//10 43//11 60//12
f 69//13 46//14 44//6 63//5
f 72//15 47//16 45//10 66//9
f 75//17 48//18 46//14 69//13
f 78//19 33//20 47//16 72//15
f 84//21 35//22 48//18 75//17
f 87//23 36//24 34//2 79//1
f 90//25 37//26 33//20 78//19
f 93//4 38//3 35//22 84//21
f 96//27 39//28 36//24 87//23
f 49//29 40//30 37//26 90//25
f 54//31 41//32 39//28 96//27
f 35//33 31//33 30//34 48//34
f 37//35 25//35 24//36 33//36
f 49//29 57//8 42//7 40//30
f 38//37 32//37 31//33 35//33
f 39//38 19//38 18//39 36//39
f 40//40 26//40 25//35 37//35
f 34//41 17//41 32//37 38//37
f 41//42 20//42 19//38 39//38
f 42//43 27//43 26//40 40//40
f 43//44 21//44 20//42 41//42
f 44//45 28//45 27//43 42//43
f 45//46 22//46 21//44 43//44
f 46//47 29//47 28//45 44//45
f 47//48 23//48 22//46 45//46
f 48//34 30//34 29//47 46//47
f 33//36 24//36 23//48 47//48
f 60//12 43//11 41//32 54//31
f 16//49 1//50 81//51 91//52
f 91//52 81//51 80//53 92//54
f 92//54 80//53 79//1 93//4
f 3//55 4//56 52//57 94//58
f 94//58 52//57 53//59 95//60
f 95//60 53//59 54//31 96//27
f 9//61 10//62 51//63 88//64
f 88//64 51//63 50//65 89//66
f 89//66 50//65 49//29 90//25
f 2//67 3//55 94//58 85//68
f 85//68 94//58 95//60 86//69
f 86//69 95//60 96//27 87//23
f 15//70 16//49 91//52 82//71
f 82//71 91//52 92//54 83//72
f 83//72 92//54 93//4 84//21
f 8//73 9//61 88//64 76//74
f 76//74 88//64 89//66 77//75
f 77//75 89//66 90//25 78//19
f 1//50 2//67 85//68 81//51
f 81//51 85//68 86//69 80//53
f 80//53 86//69 87//23 79//1
f 14//76 15//70 82//71 73//77
f 73//77 82//71 83//72 74//78
f 74//78 83//72 84//21 75//17
f 7//79 8//73 76//74 70//80
f 70//80 76//74 77//75 71//81
f 71//81 77//75 78//19 72//15
f 13//82 14//76 73//77 67//83
f 67//83 73//77 74//78 68//84
f 68//84 74//78 75//17 69//13
f 6//85 7//79 70//80 64//86
f 64//86 70//80 71//81 65//87
f 65//87 71//81 72//15 66//9
f 12//88 13//82 67//83 61//89
f 61//89 67//83 68//84 62//90
f 62//90 68//84 69//13 63//5
f 5//91 6//85 64//86 58//92
f 58//92 64//86 65//87 59//93
f 59//93 65//87 66//9 60//12
f 11//94 12//88 61//89 55//95
f 55//95 61//89 62//90 56//96
f 56//96 62//90 63//5 57//8
f 4//56 5//91 58//92 52//57
f 52//57 58//92 59//93 53//59
f 53//59 59//93 60//12 54//31
f 10//62 11//94 55//95 51//63
f 51//63 55//95 56//96 50//65
f 50//65 56//96 57//8 49//29
f 29//97 30//98 110//98 109//97
f 23//99 24//100 104//100 103//99
f 30//98 31//101 111//101 110//98
f 17//102 18//103 98//103 97//102
f 24//100 25//104 105//104 104//100
f 31//101 32//105 112//105 111//101
f 19//106 99//106 98//103 18//103
f 25//104 26//107 106//107 105//104
f 32//105 17//102 97//102 112//105
f 19//106 20//108 100//108 99//106
f 26//107 27//109 107//109 106//107
f 20//108 21//110 101//110 100//108
f 27//109 28//111 108//111 107//109
f 21//110 22//112 102//112 101//110
f 28//111 29//97 109//97 108//111
f 22//112 23//99 103//99 102//112
f 97//113 98//113 114//113 113//113
f 110//113 111//113 127//113 126//113
f 104//113 105//113 121//113 120//113
f 111//113 112//113 128//113 127//113
f 98//113 99//113 115//113 114//113
f 105//113 106//113 122//113 121//113
f 112//113 97//113 113//113 128//113
f 99//113 100//113 116//113 115//113
f 106//113 107//113 123//113 122//113
f 100//113 101//113 117//113 116//113
f 107//113 108//113 124//113 123//113
f 101//113 102//113 118//113 117//113
f 108//113 109//113 125//113 124//113
f 102//113 103//113 119//113 118//113
f 110//113 126//113 125//113 109//113
f 103//113 104//113 120//113 119//113
f 114//107 115//109 131//109 130//107
f 128//100 113//104 129//104 144//100
f 121//102 122//103 138//103 137//102
f 115//109 116//111 132//111 131//109
f 122//103 123//106 139//106 138//103
f 116//111 117//97 133//97 132//111
f 123//106 124//108 140//108 139//106
f 117//97 118//98 134//98 133//97
f 124//108 125//110 141//110 140//108
f 118//98 119//101 135//101 134//98
f 125//110 126//112 142//112 141//110
f 119//101 120//105 136//105 135//101
f 127//99 143//99 142//112 126//112
f 113//104 114//107 130//107 129//104
f 120//105 121//102 137//102 136//105
f 127//99 128//100 144//100 143//99
f 130//113 145//113 144//113 129//113
f 145//113 148//113 143//113 144//113
f 148//113 151//113 142//113 143//113
f 151//113 140//113 141//113 142//113
f 131//113 146//113 145//113 130//113
f 146//113 149//113 148//113 145//113
f 149//113 152//113 151//113 148//113
f 152//113 139//113 140//113 151//113
f 132//113 147//113 146//113 131//113
f 147//113 150//113 149//113 146//113
f 150//113 153//113 152//113 149//113
f 153//113 138//113 139//113 152//113
f 133//113 134//113 147//113 132//113
f 134//113 135//113 150//113 147//113
f 135//113 136//113 153//113 150//113
f 136//113 137//113 138//113 153//113
f 36//39 18//39 17//41 34//41
f 3//114 154//114 5//114 4//114
f 3//114 2//114 157//114 154//114
f 2//114 1//114 160//114 157//114
f 1//114 16//114 15//114 160//114
f 5//114 154//114 155//114 6//114
f 154//114 157//114 158//114 155//114
f 157//114 160//114 161//114 158//114
f 160//114 15//114 14//114 161//114
f 6//114 155//114 156//114 7//114
f 155//114 158//114 159//114 156//114
f 158//114 161//114 162//114 159//114
f 161//114 14//114 13//114 162//114
f 7//114 156//114 9//114 8//114
f 156//114 159//114 10//114 9//114
f 159//114 162//114 11//114 10//114
f 162//114 13//114 12//114 11//114
